TITLE ""
FILE "P1Q_t_0060-0069.mp3" MP3
  TRACK 01 AUDIO
    TITLE "P1Q_t_0060-0069_01"
    INDEX 01 00:00:00
  TRACK 02 AUDIO
    TITLE "P1Q_t_0060-0069_02"
    INDEX 01 00:01:25
  TRACK 03 AUDIO
    TITLE "P1Q_t_0060-0069_03"
    INDEX 01 00:01:49
  TRACK 04 AUDIO
    TITLE "P1Q_t_0060-0069_04"
    INDEX 01 00:02:48
  TRACK 05 AUDIO
    TITLE "P1Q_t_0060-0069_05"
    INDEX 01 00:02:68
  TRACK 06 AUDIO
    TITLE "P1Q_t_0060-0069_06"
    INDEX 01 00:08:67
  TRACK 07 AUDIO
    TITLE "P1Q_t_0060-0069_07"
    INDEX 01 00:09:37
  TRACK 08 AUDIO
    TITLE "P1Q_t_0060-0069_08"
    INDEX 01 00:10:66
  TRACK 09 AUDIO
    TITLE "P1Q_t_0060-0069_09"
    INDEX 01 00:11:14
  TRACK 10 AUDIO
    TITLE "P1Q_t_0060-0069_10"
    INDEX 01 00:13:50
  TRACK 11 AUDIO
    TITLE "P1Q_t_0060-0069_11"
    INDEX 01 00:13:72
  TRACK 12 AUDIO
    TITLE "P1Q_t_0060-0069_12"
    INDEX 01 00:18:57
  TRACK 13 AUDIO
    TITLE "P1Q_t_0060-0069_13"
    INDEX 01 00:19:31
  TRACK 14 AUDIO
    TITLE "P1Q_t_0060-0069_14"
    INDEX 01 00:20:27
  TRACK 15 AUDIO
    TITLE "P1Q_t_0060-0069_15"
    INDEX 01 00:20:50
  TRACK 16 AUDIO
    TITLE "P1Q_t_0060-0069_16"
    INDEX 01 00:23:27
  TRACK 17 AUDIO
    TITLE "P1Q_t_0060-0069_17"
    INDEX 01 00:23:47
  TRACK 18 AUDIO
    TITLE "P1Q_t_0060-0069_18"
    INDEX 01 00:29:06
  TRACK 19 AUDIO
    TITLE "P1Q_t_0060-0069_19"
    INDEX 01 00:29:53
  TRACK 20 AUDIO
    TITLE "P1Q_t_0060-0069_20"
    INDEX 01 00:30:58
  TRACK 21 AUDIO
    TITLE "P1Q_t_0060-0069_21"
    INDEX 01 00:31:05
  TRACK 22 AUDIO
    TITLE "P1Q_t_0060-0069_22"
    INDEX 01 00:34:09
  TRACK 23 AUDIO
    TITLE "P1Q_t_0060-0069_23"
    INDEX 01 00:34:29
  TRACK 24 AUDIO
    TITLE "P1Q_t_0060-0069_24"
    INDEX 01 00:38:64
  TRACK 25 AUDIO
    TITLE "P1Q_t_0060-0069_25"
    INDEX 01 00:39:34
  TRACK 26 AUDIO
    TITLE "P1Q_t_0060-0069_26"
    INDEX 01 00:40:51
  TRACK 27 AUDIO
    TITLE "P1Q_t_0060-0069_27"
    INDEX 01 00:40:74
  TRACK 28 AUDIO
    TITLE "P1Q_t_0060-0069_28"
    INDEX 01 00:44:12
  TRACK 29 AUDIO
    TITLE "P1Q_t_0060-0069_29"
    INDEX 01 00:44:31
  TRACK 30 AUDIO
    TITLE "P1Q_t_0060-0069_30"
    INDEX 01 00:48:39
  TRACK 31 AUDIO
    TITLE "P1Q_t_0060-0069_31"
    INDEX 01 00:49:09
  TRACK 32 AUDIO
    TITLE "P1Q_t_0060-0069_32"
    INDEX 01 00:50:26
  TRACK 33 AUDIO
    TITLE "P1Q_t_0060-0069_33"
    INDEX 01 00:50:49
  TRACK 34 AUDIO
    TITLE "P1Q_t_0060-0069_34"
    INDEX 01 00:52:01
  TRACK 35 AUDIO
    TITLE "P1Q_t_0060-0069_35"
    INDEX 01 00:52:21
  TRACK 36 AUDIO
    TITLE "P1Q_t_0060-0069_36"
    INDEX 01 00:57:24
  TRACK 37 AUDIO
    TITLE "P1Q_t_0060-0069_37"
    INDEX 01 00:57:69
  TRACK 38 AUDIO
    TITLE "P1Q_t_0060-0069_38"
    INDEX 01 00:58:74
  TRACK 39 AUDIO
    TITLE "P1Q_t_0060-0069_39"
    INDEX 01 00:59:23
  TRACK 40 AUDIO
    TITLE "P1Q_t_0060-0069_40"
    INDEX 01 01:01:12
  TRACK 41 AUDIO
    TITLE "P1Q_t_0060-0069_41"
    INDEX 01 01:01:33
  TRACK 42 AUDIO
    TITLE "P1Q_t_0060-0069_42"
    INDEX 01 01:06:15
  TRACK 43 AUDIO
    TITLE "P1Q_t_0060-0069_43"
    INDEX 01 01:06:60
  TRACK 44 AUDIO
    TITLE "P1Q_t_0060-0069_44"
    INDEX 01 01:08:06
  TRACK 45 AUDIO
    TITLE "P1Q_t_0060-0069_45"
    INDEX 01 01:08:28
  TRACK 46 AUDIO
    TITLE "P1Q_t_0060-0069_46"
    INDEX 01 01:11:30
  TRACK 47 AUDIO
    TITLE "P1Q_t_0060-0069_47"
    INDEX 01 01:11:52
  TRACK 48 AUDIO
    TITLE "P1Q_t_0060-0069_48"
    INDEX 01 01:15:55
  TRACK 49 AUDIO
    TITLE "P1Q_t_0060-0069_49"
    INDEX 01 01:16:29
  TRACK 50 AUDIO
    TITLE "P1Q_t_0060-0069_50"
    INDEX 01 01:17:52
  TRACK 51 AUDIO
    TITLE "P1Q_t_0060-0069_51"
    INDEX 01 01:17:74
  TRACK 52 AUDIO
    TITLE "P1Q_t_0060-0069_52"
    INDEX 01 01:20:49
  TRACK 53 AUDIO
    TITLE "P1Q_t_0060-0069_53"
    INDEX 01 01:20:66
  TRACK 54 AUDIO
    TITLE "P1Q_t_0060-0069_54"
    INDEX 01 01:25:46
  TRACK 55 AUDIO
    TITLE "P1Q_t_0060-0069_55"
    INDEX 01 01:26:18
  TRACK 56 AUDIO
    TITLE "P1Q_t_0060-0069_56"
    INDEX 01 01:27:33
  TRACK 57 AUDIO
    TITLE "P1Q_t_0060-0069_57"
    INDEX 01 01:27:54
  TRACK 58 AUDIO
    TITLE "P1Q_t_0060-0069_58"
    INDEX 01 01:30:19
  TRACK 59 AUDIO
    TITLE "P1Q_t_0060-0069_59"
    INDEX 01 01:30:41
  TRACK 60 AUDIO
    TITLE "P1Q_t_0060-0069_60"
    INDEX 01 01:34:35
